# xmcd
#
# Track frame offsets:
#	150
#	7688
#	14395
#	31699
#	59335
#	103779
#	123504
#	156660
#	176289
#	190603
#	229370
#	254543
#
# Disc length: 3823 seconds
#
# Revision: 1
# Processed by: cddbd v1.5.1PL0 Copyright (c) Steve Scherf et al.
# Submitted via: CDmax 2.0
#
DISCID=930eed0c
DTITLE=Jack and Jorma, The Original Acoustic Hot Tuna - Hot Tuna Live in Geneva
DTITLE=, NY - 12.07.01 - D1
DYEAR=2001
DGENRE=Blues
TTITLE0=Intro1
TTITLE1=Intro2
TTITLE2=Trouble In Mind
TTITLE3=Re-Enlistment Blues
TTITLE4=Waiting For A Train
TTITLE5=Do Not Go Gentle
TTITLE6=Serpent Of Dreams
TTITLE7=Living In The Moment
TTITLE8=Embryonic Journey
TTITLE9=Good Shepherd
TTITLE10=Fool's Blues
TTITLE11=I Know You Rider
EXTD=12-07-01\nSmith Opera House, Geneva, NY \nBilled as "Jack and Jorma, The O
EXTD=riginal Acoustic Hot Tuna"\n\nSet 1:\nTrouble In Mind\nRe-Enlistment Blu
EXTD=es\nWaiting For A Train\nDo Not Go Gentle\nSerpent Of Dreams\nLiving I
EXTD=n The Moment\nEmbryonic Journey\nGood Shepherd\nFool's Blues\nI Know Yo
EXTD=u Rider\n\nSet 2:\nHesitation Blues\nUncle Sam Blues\nBeen So Long\nHo
EXTD=w Long Blues\nI See The Light\n99 Year Blues\nGenesis\nI Am The Light O
EXTD=f This World \nNobody Knows You When You're Down And Out\nAnother Man Do
EXTD=ne Gone ->\nParchman Farm\nA Life Well Lived\nSan Francisco Bay Blues\n\
EXTD=nEncore: \nThat'll Never Happen No More\n\n\n**Missing from the Setlist
EXTD=: "Death Don't Have No Mercy"
EXTT0=
EXTT1=
EXTT2=
EXTT3=
EXTT4=
EXTT5=
EXTT6=
EXTT7=
EXTT8=
EXTT9=
EXTT10=
EXTT11=
PLAYORDER=
